#!OML:ASF E:\Style6\Style6.ASF
:FULLY-SPECIFIED
:DEGREES
3448
root 0.374631 17.0053 1.24672 -16.4236 -3.83501 1.26659
lowerback -2.60726 0.465828 1.14397
upperback 7.19881 0.357717 2.33194
thorax 9.03868 0.156379 1.86459
lowerneck 10.1779 -1.2425 5.98295
upperneck -13.2582 -2.59467 -12.5339
head -5.91408 -0.647318 -4.78346
rclavicle 2.13694e-015 -3.18055e-015
rhumerus -48.374 -6.21448 -72.7309
rradius 69.397
rwrist -47.7121
rhand 0.179562 5.78864
rfingers 7.12502
rthumb 25.7624 -22.4873
lclavicle 2.13694e-015 -3.18055e-015
lhumerus -45.7747 3.19378 78.8082
lradius 68.778
lwrist 64.367
lhand 14.1111 26.4462
lfingers 7.12502
lthumb 39.0143 51.9621
rfemur 0.567695 -2.98384 14.8065
rtibia 44.1678
rfoot -20.5449 -7.94937
rtoes -24.8635
lfemur 5.96508 3.60529 -18.1939
ltibia 40.4634
lfoot -21.0503 9.30119
ltoes -28.5892
3449
root 0.373445 16.9975 1.25869 -16.5557 -3.88155 1.28168
lowerback -2.72705 0.432769 1.01491
upperback 7.24735 0.316581 2.34955
thorax 9.1635 0.12548 1.95426
lowerneck 10.1482 -1.20947 5.90583
upperneck -13.2033 -2.5602 -12.5497
head -5.88789 -0.627852 -4.777
rclavicle -1.22253e-014 -1.19271e-014
rhumerus -48.1474 -6.13405 -72.7158
rradius 69.3496
rwrist -47.6899
rhand 0.101533 5.99522
rfingers 7.12502
rthumb 25.6876 -22.2915
lclavicle -1.22253e-014 -1.19271e-014
lhumerus -45.5959 3.38788 78.7172
lradius 68.8294
lwrist 64.4076
lhand 14.0276 26.496
lfingers 7.12502
lthumb 38.9355 52.0344
rfemur 0.723658 -2.96215 14.7752
rtibia 44.2142
rfoot -20.6009 -7.92403
rtoes -24.9201
lfemur 6.13743 3.56601 -18.2207
ltibia 40.5246
lfoot -21.1015 9.3879
ltoes -28.6067
3450
root 0.372305 16.9905 1.27049 -16.7305 -3.98509 1.20661
lowerback -2.76668 0.426423 1.03492
upperback 7.28601 0.303672 2.35727
thorax 9.2303 0.1198 1.95134
lowerneck 10.1814 -1.1889 5.89508
upperneck -13.1565 -2.5299 -12.5608
head -5.87622 -0.611857 -4.78042
rclavicle -6.06293e-015 -1.19271e-014
rhumerus -48.0105 -6.13984 -72.7131
rradius 69.3959
rwrist -47.6497
rhand 0.12893 5.84073
rfingers 7.12502
rthumb 25.7139 -22.4422
lclavicle -6.06293e-015 -1.19271e-014
lhumerus -45.4989 3.40873 78.6308
lradius 68.9031
lwrist 64.45
lhand 13.813 26.3263
lfingers 7.12502
lthumb 38.7332 51.9222
rfemur 0.925565 -2.90571 14.8686
rtibia 44.2666
rfoot -20.6736 -7.97185
rtoes -25.2355
lfemur 6.39442 3.58384 -18.1106
ltibia 40.5415
lfoot -21.1643 9.39859
ltoes -28.5366
3451
root 0.372807 16.9831 1.28405 -16.9181 -4.05047 1.16318
lowerback -2.77984 0.414945 1.04934
upperback 7.29118 0.288021 2.33807
thorax 9.24432 0.113882 1.92148
lowerneck 10.328 -1.16231 5.9247
upperneck -13.1546 -2.48607 -12.5772
head -5.89756 -0.586195 -4.7951
rclavicle 5.56597e-015 3.97569e-015
rhumerus -47.9293 -6.12718 -72.7253
rradius 69.3536
rwrist -47.6556
rhand 0.15714 5.88528
rfingers 7.12502
rthumb 25.7409 -22.3938
lclavicle 5.56597e-015 3.97569e-015
lhumerus -45.4257 3.41807 78.5316
lradius 68.8563
lwrist 64.4266
lhand 13.8221 26.0777
lfingers 7.12502
lthumb 38.7418 51.6713
rfemur 1.16015 -2.91216 14.8814
rtibia 44.3042
rfoot -20.7468 -7.97423
rtoes -25.6288
lfemur 6.67573 3.58023 -18.0507
ltibia 40.5312
lfoot -21.2203 9.43104
ltoes -28.47
3452
root 0.374736 16.9773 1.30081 -17.0684 -4.02512 1.31174
lowerback -2.87131 0.406843 0.885949
upperback 7.26957 0.293257 2.27094
thorax 9.27361 0.107448 1.94318
lowerneck 10.5206 -1.13541 5.89689
upperneck -13.109 -2.44006 -12.5572
head -5.91224 -0.558669 -4.78753
rclavicle 5.96354e-016 -1.59028e-015
rhumerus -47.8962 -6.09105 -72.7078
rradius 69.2928
rwrist -47.7293
rhand 0.0533152 5.94967
rfingers 7.12502
rthumb 25.6414 -22.3437
lclavicle 5.96354e-016 -1.59028e-015
lhumerus -45.3546 3.41104 78.4642
lradius 68.7806
lwrist 64.4686
lhand 13.8808 25.8606
lfingers 7.12502
lthumb 38.7971 51.4385
rfemur 1.38002 -2.98952 14.6306
rtibia 44.3228
rfoot -20.8312 -7.85388
rtoes -25.7091
lfemur 6.91218 3.54969 -18.2445
ltibia 40.507
lfoot -21.267 9.53843
ltoes -28.6464
3453
root 0.374584 16.9736 1.31861 -17.2064 -4.00474 1.39619
lowerback -2.99748 0.378024 0.722097
upperback 7.26692 0.26632 2.24434
thorax 9.34566 0.0830675 2.00564
lowerneck 10.6522 -1.10189 5.84071
upperneck -13.0438 -2.38826 -12.5254
head -5.90914 -0.530255 -4.77105
rclavicle -2.98177e-015 5.56597e-015
rhumerus -47.8363 -5.93989 -72.6976
rradius 69.3226
rwrist -47.9903
rhand 0.0780934 5.96403
rfingers 7.12502
rthumb 25.6652 -22.326
lclavicle -2.98177e-015 5.56597e-015
lhumerus -45.2686 3.42537 78.3982
lradius 68.7616
lwrist 64.5653
lhand 13.8282 25.7836
lfingers 7.12502
lthumb 38.7475 51.3754
rfemur 1.60593 -3.03782 14.4831
rtibia 44.3184
rfoot -20.8281 -7.92935
rtoes -26.4404
lfemur 7.15074 3.49052 -18.3677
ltibia 40.5016
lfoot -21.3722 9.62107
ltoes -28.6348
3454
root 0.372897 16.9694 1.33083 -17.3286 -4.10242 1.25043
lowerback -3.06268 0.374999 0.811758
upperback 7.28227 0.251586 2.26516
thorax 9.4025 0.0810857 1.97715
lowerneck 10.6564 -1.12376 5.83091
upperneck -12.9707 -2.40781 -12.4909
head -5.88861 -0.543342 -4.75492
rclavicle -7.40473e-015 1.19271e-014
rhumerus -47.7365 -5.87169 -72.7223
rradius 69.3459
rwrist -48.1677
rhand 0.1369 5.92333
rfingers 7.12502
rthumb 25.7215 -22.3585
lclavicle -7.40473e-015 1.19271e-014
lhumerus -45.1349 3.43813 78.2781
lradius 68.7522
lwrist 64.5373
lhand 13.8634 25.9721
lfingers 7.12502
lthumb 38.7808 51.5546
rfemur 1.78023 -2.98507 14.6651
rtibia 44.3051
rfoot -20.8937 -7.87763
rtoes -26.0363
lfemur 7.34997 3.48999 -18.1835
ltibia 40.519
lfoot -21.4172 9.72875
ltoes -28.8714
3455
root 0.369982 16.9666 1.33982 -17.3846 -4.26367 1.05407
lowerback -3.1187 0.380304 0.94945
upperback 7.26417 0.241979 2.32428
thorax 9.41704 0.0837522 1.96222
lowerneck 10.6027 -1.14749 5.77533
upperneck -12.7843 -2.43383 -12.4905
head -5.82358 -0.559331 -4.73908
rclavicle -6.70898e-015 -2.06736e-014
rhumerus -47.6006 -6.01659 -72.6855
rradius 69.2308
rwrist -47.7872
rhand 0.0145202 5.89306
rfingers 7.12502
rthumb 25.6043 -22.4057
lclavicle -6.70898e-015 -2.06736e-014
lhumerus -45.0609 3.56038 78.1868
lradius 68.7605
lwrist 64.4655
lhand 13.9298 26.1574
lfingers 7.12502
lthumb 38.8434 51.7221
rfemur 1.86097 -2.88654 14.9399
rtibia 44.2929
rfoot -20.925 -7.84521
rtoes -25.8124
lfemur 7.45977 3.52758 -17.9247
ltibia 40.545
lfoot -21.4264 9.75667
ltoes -28.9966
3456
root 0.368199 16.9636 1.35084 -17.4397 -4.3401 1.05816
lowerback -3.20607 0.389443 0.905753
upperback 7.23769 0.258052 2.30374
thorax 9.43911 0.0892662 1.96739
lowerneck 10.5959 -1.1692 5.80995
upperneck -12.5794 -2.44672 -12.5459
head -5.76128 -0.568312 -4.75797
rclavicle -1.63997e-014 -1.82882e-014
rhumerus -47.4885 -6.22791 -72.6344
rradius 69.0521
rwrist -47.5298
rhand -0.00473585 5.84803
rfingers 7.12502
rthumb 25.5858 -22.4534
lclavicle -1.63997e-014 -1.82882e-014
lhumerus -45.0153 3.58651 78.1285
lradius 68.7568
lwrist 64.5411
lhand 13.9619 26.0074
lfingers 7.12502
lthumb 38.8737 51.5635
rfemur 1.94137 -2.84823 14.9466
rtibia 44.3019
rfoot -20.9877 -7.80115
rtoes -25.908
lfemur 7.56564 3.51683 -17.9296
ltibia 40.5499
lfoot -21.4222 9.8203
ltoes -29.0711
3457
root 0.367429 16.961 1.36526 -17.5511 -4.36548 1.16733
lowerback -3.30677 0.392489 0.743947
upperback 7.24448 0.276972 2.25329
thorax 9.5052 0.0884964 2.00822
lowerneck 10.6441 -1.17193 5.80684
upperneck -12.5049 -2.43716 -12.5103
head -5.74526 -0.5662 -4.74535
rclavicle -1.2275e-014 1.82882e-014
rhumerus -47.3857 -6.41605 -72.5275
rradius 68.9125
rwrist -47.6486
rhand 0.277427 5.75306
rfingers 7.12502
rthumb 25.8561 -22.5092
lclavicle -1.2275e-014 1.82882e-014
lhumerus -44.9371 3.63181 78.0744
lradius 68.748
lwrist 64.6709
lhand 13.9476 25.8506
lfingers 7.12502
lthumb 38.8602 51.4105
rfemur 2.09376 -2.86075 14.793
rtibia 44.3452
rfoot -21.03 -7.80758
rtoes -26.4565
lfemur 7.76942 3.49124 -18.0733
ltibia 40.5093
lfoot -21.4495 9.96508
ltoes -29.2874
3458
root 0.366621 16.9583 1.37967 -17.6068 -4.3856 1.26211
lowerback -3.44035 0.391479 0.594821
upperback 7.23021 0.289826 2.20114
thorax 9.56792 0.0857634 2.03952
lowerneck 10.6401 -1.16565 5.89846
upperneck -12.3932 -2.40771 -12.5452
head -5.70829 -0.556513 -4.77261
rclavicle -8.94531e-016 -4.77083e-015
rhumerus -47.2885 -6.72116 -72.3905
rradius 68.8066
rwrist -47.6406
rhand 0.648376 5.75307
rfingers 7.12502
rthumb 26.2113 -22.457
lclavicle -8.94531e-016 -4.77083e-015
lhumerus -44.8301 3.74323 77.9719
lradius 68.668
lwrist 64.7244
lhand 14.0335 25.936
lfingers 7.12502
lthumb 38.9411 51.4729
rfemur 2.17831 -2.84009 14.6712
rtibia 44.3897
rfoot -21.1054 -7.78243
rtoes -26.5208
lfemur 7.92947 3.45573 -18.2139
ltibia 40.4474
lfoot -21.4349 10.1375
ltoes -29.6186
